#!OML:ASF F:\VICON\USERDATA\INSTALL\rory3\rory3.ASF
:FULLY-SPECIFIED
:DEGREES
2965
root -0.0175469 16.1234 0.649938 0.721546 8.60263 -1.1968
lowerback 7.26672 0.210513 1.21727
upperback -5.65877 0.366836 -0.729767
thorax -10.1076 0.0623805 -1.52309
lowerneck -5.63785 0.103157 -10.7893
upperneck 14.651 0.390843 6.75621
head 5.28704 0.0660758 3.93431
rclavicle 2.03754e-015 7.15625e-015
rhumerus 16.0635 -42.5287 8.10808
rradius 63.8926
rwrist -63.836
rhand 8.04259 6.90841
rfingers 7.12502
rthumb 33.2675 -20.035
lclavicle 2.03754e-015 7.15625e-015
lhumerus 24.2476 47.7123 6.42701
lradius 64.6715
lwrist 69.6484
lhand 20.0172 29.0109
lfingers 7.12502
lthumb 44.5511 52.6852
rfemur 4.4388 9.09697 20.7694
rtibia 10.3335
rfoot -12.5908 -21.1802
rtoes -1.44142
lfemur 4.87339 -10.327 -14.577
ltibia 2.48559
lfoot -4.77519 2.68933
ltoes -12.6119
2966
root -0.0167156 16.1243 0.65208 0.803526 9.02535 -1.10738
lowerback 7.34283 0.256151 1.22347
upperback -5.63933 0.411591 -0.931128
thorax -10.129 0.074963 -1.74996
lowerneck -5.5 0.100985 -10.6755
upperneck 14.4353 0.371464 6.71732
head 5.19878 0.062016 3.89692
rclavicle 1.70955e-014 -7.55382e-015
rhumerus 16.4669 -43.7397 8.16989
rradius 63.203
rwrist -64.2183
rhand 5.25269 7.07981
rfingers 7.12502
rthumb 30.611 -20.3951
lclavicle 1.70955e-014 -7.55382e-015
lhumerus 25.3109 48.4117 6.86051
lradius 63.9955
lwrist 69.8968
lhand 19.3723 28.4799
lfingers 7.12502
lthumb 43.9499 52.3814
rfemur 4.48453 9.01285 20.7092
rtibia 10.2574
rfoot -12.7692 -21.4574
rtoes -0.972077
lfemur 4.59422 -10.6154 -14.6582
ltibia 2.66639
lfoot -4.77715 2.58684
ltoes -12.6695
2967
root -0.0138863 16.1242 0.656207 0.865738 9.47494 -0.935457
lowerback 7.44196 0.3022 1.2049
upperback -5.60618 0.448877 -1.18873
thorax -10.149 0.083361 -2.02244
lowerneck -5.53368 0.0669273 -10.5591
upperneck 14.3971 0.314766 6.73681
head 5.19748 0.0430877 3.88022
rclavicle -1.42628e-014 1.19271e-015
rhumerus 16.8855 -45.0099 8.19118
rradius 62.361
rwrist -64.2107
rhand 2.53444 7.28077
rfingers 7.12502
rthumb 28.0156 -20.648
lclavicle -1.42628e-014 1.19271e-015
lhumerus 26.3149 48.9815 7.19899
lradius 63.2985
lwrist 70.0577
lhand 18.7527 27.8218
lfingers 7.12502
lthumb 43.3715 51.9351
rfemur 4.58457 8.74464 20.5356
rtibia 10.1651
rfoot -12.9085 -21.5981
rtoes -0.534953
lfemur 4.3311 -10.9338 -14.8503
ltibia 2.92127
lfoot -4.83208 2.52597
ltoes -12.3889
2968
root -0.0132391 16.1257 0.660077 0.91806 9.85779 -0.976166
lowerback 7.48566 0.376194 1.25642
upperback -5.55452 0.545207 -1.29985
thorax -10.1125 0.122461 -2.18594
lowerneck -5.61033 0.0439336 -10.5778
upperneck 14.403 0.279479 6.84188
head 5.21457 0.033032 3.91562
rclavicle 1.14798e-014 -7.55382e-015
rhumerus 17.452 -46.3867 8.19027
rradius 61.4164
rwrist -64.062
rhand 0.00827011 7.44205
rfingers 7.12502
rthumb 25.5983 -20.8576
lclavicle 1.14798e-014 -7.55382e-015
lhumerus 27.3524 49.5946 7.84467
lradius 62.5822
lwrist 69.9648
lhand 17.706 26.9491
lfingers 7.12502
lthumb 42.3923 51.4063
rfemur 4.62906 8.67512 20.6189
rtibia 10.0917
rfoot -13.0418 -21.8503
rtoes -0.393586
lfemur 4.097 -11.1836 -14.7877
ltibia 3.0662
lfoot -4.80609 2.49091
ltoes -12.5469
2969
root -0.0144094 16.1282 0.664448 0.989706 10.1955 -1.05545
lowerback 7.42986 0.480751 1.23125
upperback -5.47304 0.682305 -1.30624
thorax -9.98232 0.192712 -2.19807
lowerneck -5.5553 0.012492 -10.8974
upperneck 14.2362 0.237629 7.07751
head 5.1557 0.0129951 4.03842
rclavicle 2.11706e-014 5.56597e-015
rhumerus 18.2309 -47.9592 8.06959
rradius 60.4139
rwrist -63.7213
rhand -2.49767 7.61169
rfingers 7.12502
rthumb 23.196 -21.0115
lclavicle 2.11706e-014 5.56597e-015
lhumerus 28.3513 50.3046 8.61965
lradius 61.8199
lwrist 69.6981
lhand 16.2977 26.0556
lfingers 7.12502
lthumb 41.0717 50.9492
rfemur 4.63665 8.68617 20.7525
rtibia 10.0209
rfoot -13.081 -22.1608
rtoes -0.22844
lfemur 3.86324 -11.3864 -14.6637
ltibia 3.17425
lfoot -4.81002 2.40693
ltoes -12.3697
2970
root -0.0140702 16.1286 0.669257 1.05358 10.5804 -0.969322
lowerback 7.44446 0.550168 1.10782
upperback -5.38799 0.752636 -1.40433
thorax -9.89368 0.233089 -2.24344
lowerneck -5.4493 0.00909229 -11.1059
upperneck 13.9376 0.227963 7.25075
head 5.04506 0.0116824 4.12185
rclavicle -2.64384e-014 -1.19271e-015
rhumerus 18.9238 -49.5159 7.88262
rradius 59.3965
rwrist -63.2636
rhand -5.01445 7.90713
rfingers 7.12502
rthumb 20.7795 -21.0002
lclavicle -2.64384e-014 -1.19271e-015
lhumerus 29.1054 50.9121 9.04186
lradius 61.1202
lwrist 69.3915
lhand 14.6372 25.1546
lfingers 7.12502
lthumb 39.51 50.5266
rfemur 4.73072 8.2969 20.6638
rtibia 9.87431
rfoot -13.0236 -22.18
rtoes -0.241522
lfemur 3.56642 -11.6388 -14.7468
ltibia 3.49182
lfoot -4.91809 2.30472
ltoes -12.1536
2971
root -0.0132798 16.1293 0.674676 1.14751 11.0277 -0.846056
lowerback 7.54571 0.584671 1.02579
upperback -5.36542 0.772347 -1.60214
thorax -9.92712 0.239923 -2.41395
lowerneck -5.50199 -0.00294217 -11.0704
upperneck 13.9117 0.198689 7.36903
head 5.04761 0.00811645 4.15215
rclavicle 3.05631e-014 7.15625e-015
rhumerus 19.5671 -51.0146 7.54801
rradius 58.2758
rwrist -62.7117
rhand -7.41279 8.17457
rfingers 7.12502
rthumb 18.4738 -20.9682
lclavicle 3.05631e-014 7.15625e-015
lhumerus 29.8982 51.3936 9.35202
lradius 60.3702
lwrist 69.0848
lhand 12.8103 24.1462
lfingers 7.12502
lthumb 37.7867 50.0031
rfemur 4.86536 7.84527 20.5285
rtibia 9.63511
rfoot -13.0256 -22.1536
rtoes -0.0443537
lfemur 3.12767 -11.9499 -14.8629
ltibia 4.0049
lfoot -5.12185 2.2039
ltoes -12.2188
2972
root -0.0137783 16.1305 0.678708 1.26763 11.5111 -0.847997
lowerback 7.6167 0.591294 1.02245
upperback -5.36065 0.769418 -1.73553
thorax -9.96321 0.232855 -2.55614
lowerneck -5.43046 -0.035375 -11.1913
upperneck 13.8415 0.133815 7.57773
head 5.01822 -0.0166095 4.23379
rclavicle 1.08338e-014 -1.66979e-014
rhumerus 20.5468 -52.6708 6.86336
rradius 56.9812
rwrist -62.0004
rhand -9.58793 8.34315
rfingers 7.12502
rthumb 16.3804 -20.9852
lclavicle 1.08338e-014 -1.66979e-014
lhumerus 30.5419 51.865 9.49899
lradius 59.5278
lwrist 68.8714
lhand 10.7954 23.0685
lfingers 7.12502
lthumb 35.8804 49.4143
rfemur 4.95876 7.35766 20.5456
rtibia 9.38036
rfoot -13.1313 -22.0572
rtoes 0.386737
lfemur 2.64839 -12.2916 -14.8108
ltibia 4.47043
lfoot -5.27128 2.07974
ltoes -12.1819
2973
root -0.0148786 16.1308 0.681589 1.31918 11.9587 -1.02227
lowerback 7.69703 0.636626 1.19199
upperback -5.34996 0.844549 -1.81447
thorax -9.9928 0.253909 -2.75015
lowerneck -5.24677 -0.0954831 -11.3843
upperneck 13.7286 0.0193141 7.85036
head 4.96137 -0.0667671 4.34385
rclavicle -1.18277e-014 2.38542e-015
rhumerus 21.4379 -54.3161 6.34565
rradius 55.5485
rwrist -61.2641
rhand -11.7674 8.54669
rfingers 7.12502
rthumb 14.2812 -20.9422
lclavicle -1.18277e-014 2.38542e-015
lhumerus 31.4534 52.3852 9.94339
lradius 58.6008
lwrist 68.6349
lhand 8.64227 22.2393
lfingers 7.12502
lthumb 33.8375 49.059
rfemur 5.08742 6.90811 20.7567
rtibia 9.08327
rfoot -13.1296 -22.0202
rtoes 0.641052
lfemur 2.20062 -12.5969 -14.5724
ltibia 4.93876
lfoot -5.40734 1.96086
ltoes -12.173
2974
root -0.0169171 16.1316 0.684433 1.38584 12.3662 -1.10711
lowerback 7.80869 0.708177 1.22966
upperback -5.40699 0.936152 -1.92477
thorax -10.1159 0.288676 -2.90897
lowerneck -5.16208 -0.110103 -11.3804
upperneck 13.8655 -0.0382935 8.03747
head 4.99286 -0.0860132 4.40222
rclavicle 1.44119e-014 -2.22639e-014
rhumerus 22.3335 -55.8438 5.87141
rradius 53.9782
rwrist -60.4992
rhand -13.9179 8.66518
rfingers 7.12502
rthumb 12.2083 -20.9585
lclavicle 1.44119e-014 -2.22639e-014
lhumerus 32.5045 52.8738 10.4553
lradius 57.5642
lwrist 68.5789
lhand 6.67063 21.6085
lfingers 7.12502
lthumb 31.9621 48.822
rfemur 5.2538 6.49744 20.8744
rtibia 8.73519
rfoot -13.1289 -21.9751
rtoes 1.16677
lfemur 1.76678 -12.8639 -14.4293
ltibia 5.40353
lfoot -5.56196 1.82157
ltoes -12.3577
2975
root -0.0183403 16.1333 0.689097 1.4748 12.7662 -1.1039
lowerback 7.92693 0.702332 1.09728
upperback -5.50254 0.907217 -1.97684
thorax -10.2957 0.278251 -2.89116
lowerneck -4.8368 -0.0587252 -11.4772
upperneck 13.764 -0.012444 8.20366
head 4.90205 -0.0720656 4.46914
rclavicle -8.74653e-015 -2.38542e-015
rhumerus 24.0152 -57.4597 4.5637
rradius 52.3578
rwrist -59.6056
rhand -15.8903 8.68049
rfingers 7.12502
rthumb 10.306 -21.047
lclavicle -8.74653e-015 -2.38542e-015
lhumerus 33.0103 53.4041 10.4239
lradius 56.4856
lwrist 68.7752
lhand 4.50175 21.0721
lfingers 7.12502
lthumb 29.8946 48.6784
rfemur 5.39966 6.09432 20.8811
rtibia 8.40423
rfoot -13.0845 -21.9283
rtoes 1.36619
lfemur 1.38762 -13.1256 -14.3947
ltibia 5.76643
lfoot -5.6812 1.70661
ltoes -12.6081
2976
root -0.0181942 16.1358 0.696469 1.63222 13.1965 -1.06023
lowerback 7.94883 0.688132 0.959639
upperback -5.57071 0.863269 -2.05748
thorax -10.3881 0.261634 -2.89553
lowerneck -4.40454 -0.0255116 -11.5475
upperneck 13.3891 -0.0145366 8.34756
head 4.71263 -0.0708962 4.51713
rclavicle -1.63003e-014 7.15625e-015
rhumerus 25.7522 -59.1754 3.10461
rradius 50.7408
rwrist -58.6146
rhand -17.7566 8.72761
rfingers 7.12502
rthumb 8.50525 -21.0811
lclavicle -1.63003e-014 7.15625e-015
lhumerus 33.9277 54.1294 10.9771
lradius 55.3717
lwrist 68.7438
lhand 2.20803 20.6366
lfingers 7.12502
lthumb 27.7035 48.616
rfemur 5.4665 5.66153 20.8341
rtibia 8.11743
rfoot -13.1129 -21.8656
rtoes 1.92747
lfemur 1.0096 -13.4139 -14.3866
ltibia 6.00295
lfoot -5.72955 1.59376
ltoes -12.636
2977
root -0.0194217 16.1383 0.704109 1.83418 13.6347 -1.01145
lowerback 7.89859 0.754656 0.841346
upperback -5.52195 0.92968 -2.15708
thorax -10.3002 0.299877 -2.94445
lowerneck -4.58549 -0.115919 -11.6906
upperneck 13.3798 -0.128006 8.54053
head 4.75123 -0.118705 4.59824
rclavicle 5.15846e-014 1.74931e-014
rhumerus 26.6645 -61.0015 2.50279
rradius 49.2106
rwrist -57.7595
rhand -19.5618 8.63672
rfingers 7.12502
rthumb 6.7628 -21.2353
lclavicle 5.15846e-014 1.74931e-014
lhumerus 35.9215 55.1896 12.8815
lradius 54.1381
lwrist 68.2018
lhand 0.272261 20.2775
lfingers 7.12502
lthumb 25.8511 48.5406
rfemur 5.53227 5.21917 20.7858
rtibia 7.75526
rfoot -13.0701 -21.8272
rtoes 2.13805
lfemur 0.550644 -13.7055 -14.3549
ltibia 6.28553
lfoot -5.74744 1.47738
ltoes -12.1432
2978
root -0.0208493 16.1405 0.711005 1.97592 14.1052 -1.09842
lowerback 7.91002 0.775807 0.841864
upperback -5.47405 0.955544 -2.19383
thorax -10.2518 0.311984 -2.9876
lowerneck -4.88877 -0.211916 -11.9732
upperneck 13.5504 -0.237166 8.80858
head 4.86561 -0.166448 4.73131
rclavicle -4.13472e-014 -1.11319e-014
rhumerus 27.5658 -62.6952 1.86153
rradius 47.7267
rwrist -56.9567
rhand -21.2426 8.48905
rfingers 7.12502
rthumb 5.14008 -21.4286
lclavicle -4.13472e-014 -1.11319e-014
lhumerus 37.5623 56.277 14.2656
lradius 52.8651
lwrist 67.8054
lhand -1.43015 20.263
lfingers 7.12502
lthumb 24.2199 48.7535
rfemur 5.68454 4.7486 20.8888
rtibia 7.29308
rfoot -12.9689 -21.7964
rtoes 2.26348
lfemur 0.0794147 -14.0264 -14.1765
ltibia 6.63115
lfoot -5.82045 1.35276
ltoes -12.086
2979
root -0.0182786 16.1419 0.715753 2.10875 14.597 -1.24863
lowerback 7.9694 0.749754 0.969857
upperback -5.54555 0.930232 -2.2591
thorax -10.3663 0.285522 -3.12987
lowerneck -4.68662 -0.2151 -11.9876
upperneck 13.4423 -0.277316 8.95224
head 4.80117 -0.180672 4.77467
rclavicle 1.96797e-014 -1.19271e-014
rhumerus 28.5292 -64.1379 0.962492
rradius 46.2869
rwrist -56.3311
rhand -22.2997 8.59009
rfingers 7.12502
rthumb 4.11941 -21.3498
lclavicle 1.96797e-014 -1.19271e-014
lhumerus 38.7838 57.199 15.0644
lradius 51.5967
lwrist 67.6338
lhand -2.9956 20.3223
lfingers 7.12502
lthumb 22.7182 49.0049
rfemur 5.86729 4.26198 21.0264
rtibia 6.73877
rfoot -12.7969 -21.7761
rtoes 2.49035
lfemur -0.41504 -14.3641 -13.9423
ltibia 7.0109
lfoot -5.92861 1.23242
ltoes -12.2359
